<?xml version="1.0" encoding="utf-8"?>
<!-- Generator: Adobe Illustrator 16.0.3, SVG Export Plug-In . SVG Version: 6.00 Build 0)  -->
<!DOCTYPE svg PUBLIC "-//W3C//DTD SVG 1.1//EN" "http://www.w3.org/Graphics/SVG/1.1/DTD/svg11.dtd">
<svg version="1.1" id="Layer_1" xmlns="http://www.w3.org/2000/svg" xmlns:xlink="http://www.w3.org/1999/xlink" x="0px" y="0px"
	 width="532.744px" height="100.259px" viewBox="0 0 532.744 100.259" enable-background="new 0 0 532.744 100.259"
	 xml:space="preserve">
<rect x="133.14" y="40.662" fill="#E37025" width="57.249" height="17.468"/>
<path fill="#595A5C" d="M479.605,9.542c-1.468-2.544-3.376-4.746-5.725-6.606c-2.741-2.151-5.384-3.229-7.927-3.229
	c-2.349,0-4.991,1.126-7.927,3.376c-2.447,1.958-4.355,4.11-5.726,6.459l-44.045,73.249h-58.453V0H335.6h-3.265h-92.333
	c-8.711,0-16,2.399-21.872,7.193c-6.264,5.188-9.395,11.989-9.395,20.404c0,8.514,3.131,15.365,9.395,20.551
	c5.872,4.796,13.161,7.193,21.872,7.193h47.268c4.793,0,8.904,1.027,12.33,3.083c4.111,2.447,6.166,5.922,6.166,10.422
	c0,4.503-2.008,8.074-6.02,10.717c-3.523,2.153-7.684,3.229-12.477,3.229h-72.331h-4.149H125.8V17.468h69.139V0h-85.497h-1.111H0
	v17.468h39.634v82.791h17.322V17.468h51.376v82.791h102.459h4.149h72.331c9.688,0,17.762-2.69,24.221-8.074
	c6.752-5.772,10.129-13.406,10.129-22.898c0-9.492-3.377-17.175-10.129-23.047c-6.459-5.578-14.533-8.367-24.221-8.367h-47.268
	c-3.328,0-6.166-0.881-8.514-2.643c-2.349-1.761-3.523-4.257-3.523-7.486c0-3.131,1.174-5.626,3.523-7.486
	c2.349-1.858,5.186-2.789,8.514-2.789h92.333v82.791h86.461v-0.146h1.505l45.212-74.277l17.468,28.918h-26.569l-10.568,17.322
	h47.561l16.881,28.037l22.459,0.146L479.605,9.542z"/>
<g>
	<path fill="#595A5C" d="M519.532,1.254h-3.229v6.768h-1.416V1.254h-3.239v-1.428h7.884V1.254z"/>
	<path fill="#595A5C" d="M532.744,8.034h-1.607l-1.188-5.736L527.2,7.59c-0.184,0.36-0.439,0.54-0.768,0.54
		c-0.368,0-0.648-0.184-0.84-0.552l-2.748-5.28l-1.177,5.736h-1.62l1.837-7.524c0.048-0.216,0.153-0.404,0.317-0.564
		c0.164-0.16,0.354-0.24,0.57-0.24c0.312,0,0.607,0.268,0.888,0.804l2.736,5.364l2.748-5.364c0.279-0.536,0.576-0.804,0.888-0.804
		c0.208,0,0.4,0.084,0.576,0.252c0.151,0.152,0.256,0.336,0.312,0.552L532.744,8.034z"/>
</g>
</svg>
